<svg width="172" height="49" viewBox="0 0 172 49" fill="none" xmlns="http://www.w3.org/2000/svg">
<path d="M35.011 34.3512C35.011 34.8075 34.9297 35.2301 34.7665 35.6208C34.604 36.0114 34.3758 36.3536 34.0829 36.6466C33.8063 36.9232 33.4727 37.1427 33.082 37.306C32.6914 37.4685 32.268 37.5497 31.8125 37.5497H8.91193C8.32598 37.5497 7.69081 37.4849 7.00719 37.3544C6.33999 37.2075 5.67279 36.988 5.00559 36.695C4.35401 36.402 3.72743 36.0278 3.12508 35.5723C2.52272 35.1005 1.98598 34.5387 1.51409 33.8871C1.05783 33.2202 0.692197 32.4552 0.414846 31.5926C0.138277 30.7136 0 29.7289 0 28.6384V11.4505C0 10.8646 0.0656266 10.2379 0.195317 9.57054C0.342196 8.88693 0.561728 8.21957 0.854703 7.56854C1.14768 6.90118 1.5305 6.2664 2.00238 5.6642C2.47427 5.062 3.03601 4.533 3.6868 4.07721C4.35401 3.60524 5.11887 3.23086 5.98217 2.95421C6.84469 2.67749 7.82128 2.53912 8.91193 2.53912H34.718V8.88693H8.91193C8.08144 8.88693 7.44627 9.1067 7.00719 9.54609C6.56812 9.98563 6.34781 10.6367 6.34781 11.4993V28.6384C6.34781 29.4522 6.56812 30.087 7.00719 30.5427C7.46267 30.9822 8.09785 31.2019 8.91193 31.2019H28.6632V23.2427H11.7682V16.8461H31.8125C32.268 16.8461 32.6914 16.9356 33.082 17.1147C33.4727 17.2774 33.8063 17.5053 34.0829 17.7983C34.3758 18.0913 34.604 18.433 34.7665 18.8237C34.9297 19.198 35.011 19.6049 35.011 20.0445V34.3512ZM47.3644 5.7374H41.0166V0H47.3644V5.7374ZM47.3644 37.5497H41.0166V11.1575H47.3644V37.5497ZM78.9816 28.6384C78.9816 29.7289 78.8433 30.7136 78.5667 31.5926C78.2902 32.4552 77.9237 33.2202 77.4683 33.8871C77.012 34.5387 76.4831 35.1005 75.8807 35.5723C75.2784 36.0278 74.644 36.402 73.9768 36.695C73.3252 36.988 72.658 37.2075 71.9744 37.3544C71.3072 37.4849 70.6728 37.5497 70.0704 37.5497H52.8825V31.2019H70.0212C70.8837 31.2019 71.5353 30.9822 71.9744 30.5427C72.4142 30.1033 72.6338 29.4684 72.6338 28.6384C72.5525 26.9456 71.6978 26.0993 70.0704 26.0993H60.2311C58.8311 26.0993 57.6428 25.8551 56.6662 25.3668C55.6896 24.8785 54.8927 24.2682 54.274 23.5357C53.6716 22.8033 53.2325 22.0139 52.9552 21.1675C52.695 20.3211 52.5645 19.5317 52.5645 18.7993C52.5645 17.3832 52.8169 16.1951 53.3216 15.2347C53.8263 14.2582 54.4615 13.4688 55.2263 12.8665C55.9912 12.2643 56.8209 11.8329 57.7162 11.5725C58.6116 11.2958 59.4499 11.1575 60.2311 11.1575H75.8323V17.5053H60.2804C59.9546 17.5053 59.6944 17.546 59.4991 17.6274C59.3194 17.6925 59.1811 17.7901 59.0835 17.9204C59.0022 18.0343 58.9538 18.1645 58.9373 18.311C58.9209 18.4412 58.9131 18.5714 58.9131 18.7016C58.9288 18.962 58.978 19.1655 59.0592 19.3119C59.1405 19.4585 59.2381 19.5643 59.3522 19.6294C59.4827 19.6945 59.621 19.7352 59.7671 19.7515C59.9303 19.7515 60.085 19.7515 60.2311 19.7515H70.0704C71.6978 19.7515 73.0814 20.0445 74.2205 20.6304C75.3604 21.2164 76.28 21.9569 76.9792 22.8521C77.6792 23.731 78.1839 24.6914 78.4933 25.733C78.8191 26.7747 78.9816 27.7432 78.9816 28.6384ZM107.01 17.5053H95.925V37.5497H89.5045V17.5053H81.252V11.1575H89.5045V2.53912H95.925V11.1575H107.01V17.5053ZM136.917 28.8093C136.917 29.6882 136.763 30.6403 136.454 31.6658C136.145 32.6749 135.64 33.619 134.94 34.4981C134.256 35.3606 133.353 36.0849 132.23 36.6708C131.123 37.2568 129.772 37.5497 128.177 37.5497H116.727C115.847 37.5497 114.896 37.395 113.87 37.0857C112.861 36.7763 111.917 36.2802 111.038 35.5966C110.175 34.8965 109.451 33.9934 108.865 32.8865C108.279 31.7635 107.986 30.4044 107.986 28.8093C107.986 27.9304 108.141 26.9782 108.45 25.9527C108.76 24.9274 109.256 23.9833 109.939 23.1206C110.639 22.2417 111.543 21.5093 112.65 20.9234C113.772 20.3374 115.132 20.0445 116.727 20.0445H128.177V26.0993H116.727C115.864 26.0993 115.197 26.3678 114.725 26.9049C114.253 27.4258 114.017 28.0768 114.017 28.8581C114.017 29.6882 114.285 30.3392 114.822 30.8113C115.375 31.267 116.027 31.4949 116.775 31.4949H128.177C129.04 31.4949 129.707 31.2345 130.179 30.7136C130.651 30.1928 130.887 29.5417 130.887 28.7605V19.8979C130.887 19.0679 130.627 18.4086 130.105 17.9204C129.602 17.4321 128.959 17.1879 128.177 17.1879H114.236V11.1575H128.177C129.056 11.1575 130 11.3121 131.009 11.6214C132.034 11.9306 132.979 12.4352 133.841 13.1351C134.72 13.8187 135.452 14.722 136.038 15.8451C136.624 16.9519 136.917 18.3029 136.917 19.8979V28.8093ZM171.049 40.0889C171.049 41.1795 170.911 42.1561 170.635 43.0186C170.357 43.8975 169.992 44.6624 169.535 45.314C169.08 45.9812 168.551 46.5421 167.949 46.9984C167.346 47.4703 166.712 47.8531 166.044 48.1453C165.393 48.439 164.726 48.65 164.042 48.7805C163.375 48.9266 162.74 49 162.137 49H150.687V42.6522H162.137C163.001 42.6522 163.644 42.4327 164.066 41.9936C164.49 41.5537 164.702 40.9186 164.702 40.0889V20.0445C164.702 19.2143 164.49 18.5877 164.066 18.1645C163.644 17.725 163.001 17.5053 162.137 17.5053H150.687C149.906 17.5053 149.288 17.7494 148.832 18.2377C148.376 18.7097 148.148 19.3119 148.148 20.0445V28.6384C148.148 29.4684 148.368 30.1033 148.807 30.5427C149.247 30.9822 149.89 31.2019 150.736 31.2019H162.137V37.5497H150.687C150.085 37.5497 149.45 37.4849 148.783 37.3544C148.116 37.2075 147.448 36.988 146.781 36.695C146.13 36.402 145.503 36.0278 144.901 35.5723C144.299 35.1005 143.77 34.5387 143.314 33.8871C142.858 33.2202 142.492 32.4552 142.215 31.5926C141.939 30.7136 141.8 29.7289 141.8 28.6384V20.0445C141.8 19.4422 141.866 18.8074 141.996 18.14C142.142 17.4728 142.362 16.8135 142.655 16.1625C142.948 15.4951 143.322 14.8604 143.778 14.2582C144.25 13.656 144.811 13.127 145.463 12.6712C146.13 12.2154 146.895 11.8493 147.757 11.5725C148.62 11.2958 149.597 11.1575 150.687 11.1575H162.137C162.74 11.1575 163.375 11.2307 164.042 11.3772C164.726 11.5075 165.393 11.719 166.044 12.012C166.712 12.305 167.346 12.6875 167.949 13.1595C168.551 13.6152 169.08 14.1767 169.535 14.8441C169.992 15.4951 170.357 16.252 170.635 17.1147C170.911 17.9773 171.049 18.9539 171.049 20.0445V40.0889Z" fill="#F0281D"/>
</svg>
