<svg width="300" height="300" viewBox="0 0 300 300" fill="none" xmlns="http://www.w3.org/2000/svg">
<path d="M150.014 179.764C166.444 179.764 179.764 166.444 179.764 150.014C179.764 133.584 166.444 120.264 150.014 120.264C133.584 120.264 120.264 133.584 120.264 150.014C120.264 166.444 133.584 179.764 150.014 179.764Z" fill="#F0281D"/>
<path d="M250.004 234.379C248.004 234.379 246.129 233.754 244.379 232.504C240.254 229.379 239.379 223.504 242.504 219.379C257.629 199.254 265.629 175.254 265.629 150.004C265.629 124.753 257.629 100.753 242.504 80.6284C239.379 76.5034 240.254 70.6284 244.379 67.5034C248.504 64.3784 254.379 65.2534 257.504 69.3784C275.129 92.7534 284.379 120.628 284.379 150.004C284.379 179.379 275.129 207.254 257.504 230.629C255.629 233.129 252.879 234.379 250.004 234.379Z" fill="#F0281D"/>
<path d="M50 234.379C47.125 234.379 44.375 233.129 42.5 230.629C24.875 207.254 15.625 179.379 15.625 150.004C15.625 120.628 24.875 92.7534 42.5 69.3784C45.625 65.2534 51.5 64.3784 55.625 67.5034C59.75 70.6284 60.625 76.5034 57.5 80.6284C42.375 100.753 34.375 124.753 34.375 150.004C34.375 175.254 42.375 199.254 57.5 219.379C60.625 223.504 59.75 229.379 55.625 232.504C54 233.754 52 234.379 50 234.379Z" fill="#F0281D"/>
<path d="M210.014 204.359C208.014 204.359 206.139 203.734 204.389 202.484C200.264 199.359 199.389 193.484 202.514 189.359C211.139 177.984 215.639 164.359 215.639 149.984C215.639 135.609 211.139 121.984 202.514 110.609C199.389 106.484 200.264 100.609 204.389 97.4839C208.514 94.3589 214.389 95.2339 217.514 99.3589C228.514 114.109 234.389 131.609 234.389 149.984C234.389 168.359 228.514 185.984 217.514 200.609C215.639 203.109 212.889 204.359 210.014 204.359Z" fill="#F0281D"/>
<path d="M90 204.359C87.125 204.359 84.375 203.109 82.5 200.609C71.5 185.984 65.625 168.359 65.625 149.984C65.625 131.609 71.5 113.984 82.5 99.3589C85.625 95.2339 91.5 94.3589 95.625 97.4839C99.75 100.609 100.625 106.484 97.5 110.609C88.875 121.984 84.375 135.609 84.375 149.984C84.375 164.359 88.875 177.984 97.5 189.359C100.625 193.484 99.75 199.359 95.625 202.484C94 203.734 92 204.359 90 204.359Z" fill="#F0281D"/>
</svg>
