<svg width="32" height="32" viewBox="0 0 32 32" fill="none" xmlns="http://www.w3.org/2000/svg">
<path d="M19.1331 2.66663H12.8664C11.4797 2.66663 10.3464 3.78663 10.3464 5.17329V6.42663C10.3464 7.81329 11.4664 8.93329 12.853 8.93329H19.1331C20.5197 8.93329 21.6397 7.81329 21.6397 6.42663V5.17329C21.6531 3.78663 20.5197 2.66663 19.1331 2.66663Z" fill="#FFCBC4"/>
<path d="M22.9855 6.42603C22.9855 8.54603 21.2521 10.2794 19.1321 10.2794H12.8654C10.7454 10.2794 9.01207 8.54603 9.01207 6.42603C9.01207 5.67936 8.21207 5.2127 7.54541 5.55936C5.66541 6.55936 4.38541 8.54603 4.38541 10.826V23.3727C4.38541 26.6527 7.06541 29.3327 10.3454 29.3327H21.6521C24.9321 29.3327 27.6121 26.6527 27.6121 23.3727V10.826C27.6121 8.54603 26.3321 6.55936 24.4521 5.55936C23.7855 5.2127 22.9855 5.67936 22.9855 6.42603ZM16.5055 22.5994H10.6654C10.1187 22.5994 9.66541 22.146 9.66541 21.5994C9.66541 21.0527 10.1187 20.5994 10.6654 20.5994H16.5055C17.0521 20.5994 17.5055 21.0527 17.5055 21.5994C17.5055 22.146 17.0521 22.5994 16.5055 22.5994ZM19.9988 17.266H10.6654C10.1187 17.266 9.66541 16.8127 9.66541 16.266C9.66541 15.7194 10.1187 15.266 10.6654 15.266H19.9988C20.5455 15.266 20.9988 15.7194 20.9988 16.266C20.9988 16.8127 20.5455 17.266 19.9988 17.266Z" fill="#FFCBC4"/>
</svg>
