<svg width="32" height="32" viewBox="0 0 32 32" fill="none" xmlns="http://www.w3.org/2000/svg">
<path d="M26.7203 9.09553L19.0403 3.7222C16.9469 2.25553 13.7336 2.33553 11.7203 3.89553L5.04031 9.10886C3.70697 10.1489 2.65364 12.2822 2.65364 13.9621V23.1621C2.65364 26.5621 5.41364 29.3355 8.81364 29.3355H23.1869C26.5869 29.3355 29.3469 26.5755 29.3469 23.1755V14.1355C29.3469 12.3355 28.1869 10.1222 26.7203 9.09553ZM17.0003 24.0021C17.0003 24.5488 16.5469 25.0021 16.0003 25.0021C15.4536 25.0021 15.0003 24.5488 15.0003 24.0021V20.0021C15.0003 19.4555 15.4536 19.0021 16.0003 19.0021C16.5469 19.0021 17.0003 19.4555 17.0003 20.0021V24.0021Z" fill="#FFCBC4"/>
</svg>
