<svg width="32" height="32" viewBox="0 0 32 32" fill="none" xmlns="http://www.w3.org/2000/svg">
<path d="M23.7485 7.31996V8.30663L19.0285 5.57329C17.2419 4.54663 14.7485 4.54663 12.9752 5.57329L8.25522 8.31996V7.31996C8.25522 4.31996 9.89522 2.66663 12.8952 2.66663H19.1085C22.1085 2.66663 23.7485 4.31996 23.7485 7.31996Z" fill="#FFCBC4"/>
<path d="M23.7867 10.6244L23.6 10.5311L21.7867 9.49108L18.0267 7.31775C16.88 6.65108 15.12 6.65108 13.9733 7.31775L10.2133 9.47775L8.4 10.5444L8.16 10.6644C5.82667 12.2377 5.66667 12.5311 5.66667 15.0511V21.0778C5.66667 23.5978 5.82667 23.8911 8.21334 25.5044L13.9733 28.8244C14.5467 29.1711 15.2667 29.3178 16 29.3178C16.72 29.3178 17.4533 29.1578 18.0267 28.8244L23.84 25.4644C26.1867 23.8911 26.3333 23.6111 26.3333 21.0778V15.0511C26.3333 12.5311 26.1733 12.2377 23.7867 10.6244ZM19.72 17.9978L18.9067 18.9978C18.7733 19.1444 18.68 19.4244 18.6933 19.6244L18.7733 20.9044C18.8267 21.6911 18.2667 22.0911 17.5333 21.8111L16.3467 21.3311C16.16 21.2644 15.8533 21.2644 15.6667 21.3311L14.48 21.7978C13.7467 22.0911 13.1867 21.6778 13.24 20.8911L13.32 19.6111C13.3333 19.4111 13.24 19.1311 13.1067 18.9844L12.28 17.9978C11.7733 17.3978 12 16.7311 12.76 16.5311L14 16.2111C14.2 16.1578 14.4267 15.9711 14.5333 15.8111L15.2267 14.7444C15.6533 14.0778 16.3333 14.0778 16.7733 14.7444L17.4667 15.8111C17.5733 15.9844 17.8133 16.1578 18 16.2111L19.24 16.5311C20 16.7311 20.2267 17.3978 19.72 17.9978Z" fill="#FFCBC4"/>
</svg>
